<?xml version="1.0" encoding="UTF-8"?>
<svg xmlns="http://www.w3.org/2000/svg" width="80" height="75.015" viewBox="0 0 80 75.015">
  <g id="_2-in-home-design-consultation_1_" data-name="2-in-home-design-consultation (1)" transform="translate(0 0)">
    <path id="Path_188" data-name="Path 188" d="M55.5,3.247a1.135,1.135,0,0,0-.375-.875,1.208,1.208,0,0,0-1.75,0A1.135,1.135,0,0,0,53,3.247V4.5h2.5Z" transform="translate(13.25 0.517)" fill="none"></path>
    <path id="Path_189" data-name="Path 189" d="M11.5,3.247a1.135,1.135,0,0,0-.375-.875,1.208,1.208,0,0,0-1.75,0A1.135,1.135,0,0,0,9,3.247V4.5h2.5Z" transform="translate(2.25 0.517)" fill="none"></path>
    <path id="Path_190" data-name="Path 190" d="M53.375,35A14.375,14.375,0,1,0,67.75,49.375,14.375,14.375,0,0,0,53.375,35Zm0,26.25A11.875,11.875,0,1,1,65.25,49.375,11.875,11.875,0,0,1,53.375,61.25Z" transform="translate(9.75 8.766)" fill="none"></path>
    <rect id="Rectangle_85" data-name="Rectangle 85" width="7.5" height="7.5" transform="translate(56.25 21.266)" fill="#004ab3"></rect>
    <rect id="Rectangle_86" data-name="Rectangle 86" width="7.5" height="7.5" transform="translate(46.249 21.266)" fill="#004ab3"></rect>
    <rect id="Rectangle_87" data-name="Rectangle 87" width="7.5" height="7.5" transform="translate(36.25 21.266)" fill="#004ab3"></rect>
    <rect id="Rectangle_88" data-name="Rectangle 88" width="7.5" height="7.5" transform="translate(56.25 31.266)" fill="#004ab3"></rect>
    <rect id="Rectangle_89" data-name="Rectangle 89" width="7.5" height="7.5" transform="translate(66.25 21.266)" fill="#004ab3"></rect>
    <rect id="Rectangle_90" data-name="Rectangle 90" width="7.5" height="7.5" transform="translate(66.25 31.266)" fill="#004ab3"></rect>
    <rect id="Rectangle_91" data-name="Rectangle 91" width="7.5" height="7.5" transform="translate(46.249 31.266)" fill="#004ab3"></rect>
    <rect id="Rectangle_92" data-name="Rectangle 92" width="7.5" height="7.5" transform="translate(36.25 31.266)" fill="#004ab3"></rect>
    <rect id="Rectangle_93" data-name="Rectangle 93" width="7.5" height="7.5" transform="translate(26.25 31.266)" fill="#ed1c24"></rect>
    <rect id="Rectangle_94" data-name="Rectangle 94" width="7.5" height="7.5" transform="translate(16.25 31.266)" fill="#ed1c24"></rect>
    <rect id="Rectangle_95" data-name="Rectangle 95" width="7.5" height="7.5" transform="translate(6.25 31.266)" fill="#ed1c24"></rect>
    <rect id="Rectangle_96" data-name="Rectangle 96" width="7.5" height="7.5" transform="translate(36.25 41.266)" fill="#004ab3"></rect>
    <rect id="Rectangle_97" data-name="Rectangle 97" width="7.5" height="7.5" transform="translate(26.25 41.266)" fill="#004ab3"></rect>
    <rect id="Rectangle_98" data-name="Rectangle 98" width="7.5" height="7.5" transform="translate(16.25 41.266)" fill="#ed1c24"></rect>
    <rect id="Rectangle_99" data-name="Rectangle 99" width="7.5" height="7.5" transform="translate(6.25 41.266)" fill="#ed1c24"></rect>
    <rect id="Rectangle_100" data-name="Rectangle 100" width="7.5" height="7.5" transform="translate(26.25 51.266)" fill="#004ab3"></rect>
    <rect id="Rectangle_101" data-name="Rectangle 101" width="7.5" height="7.5" transform="translate(36.25 51.266)" fill="#004ab3"></rect>
    <rect id="Rectangle_102" data-name="Rectangle 102" width="7.5" height="7.5" transform="translate(16.25 51.266)" fill="#004ab3"></rect>
    <rect id="Rectangle_103" data-name="Rectangle 103" width="7.5" height="7.5" transform="translate(6.25 51.266)" fill="#004ab3"></rect>
    <rect id="Rectangle_104" data-name="Rectangle 104" width="7.5" height="7.5" transform="translate(26.25 61.266)" fill="#004ab3"></rect>
    <rect id="Rectangle_105" data-name="Rectangle 105" width="7.5" height="7.5" transform="translate(16.25 61.266)" fill="#004ab3"></rect>
    <rect id="Rectangle_106" data-name="Rectangle 106" width="7.5" height="7.5" transform="translate(6.25 61.266)" fill="#004ab3"></rect>
    <path id="Path_191" data-name="Path 191" d="M52.875,37A11.875,11.875,0,1,0,64.75,48.875,11.875,11.875,0,0,0,52.875,37Zm-1,17.125a1.208,1.208,0,0,1-1.75,0l-3.75-3.75,1.75-1.75L51,51.5l6.625-6.625,1.75,1.75Z" transform="translate(10.25 9.266)" fill="#ed0000"></path>
    <path id="Path_192" data-name="Path 192" d="M73.749,5V7.5H77.5V15H2.5V7.5H13.75V10H6.25v2.5h67.5V10h-2.5V3.754a3.4,3.4,0,0,0-1.125-2.625,3.857,3.857,0,0,0-5.25,0,3.4,3.4,0,0,0-1.125,2.625V5h-45V7.5h50V10H16.25V3.754a3.4,3.4,0,0,0-1.128-2.625A3.737,3.737,0,0,0,9.872,1,3.878,3.878,0,0,0,8.75,3.754V5H0V75H46.249V72.5H2.5v-55h75V41.251H80V5Zm-7.5,0V3.755a1.135,1.135,0,0,1,.375-.875,1.208,1.208,0,0,1,1.75,0,1.135,1.135,0,0,1,.375.875V5Zm-55-1.248a1.135,1.135,0,0,1,.375-.875,1.208,1.208,0,0,1,1.75,0,1.135,1.135,0,0,1,.375.875V5h-2.5Z" transform="translate(0 0.013)" fill="#333"></path>
    <rect id="Rectangle_107" data-name="Rectangle 107" width="2.5" height="2.5" transform="translate(8.75 23.766)" fill="#333"></rect>
    <rect id="Rectangle_108" data-name="Rectangle 108" width="2.5" height="2.5" transform="translate(18.75 23.766)" fill="#333"></rect>
    <rect id="Rectangle_109" data-name="Rectangle 109" width="2.5" height="2.5" transform="translate(28.75 23.766)" fill="#333"></rect>
    <rect id="Rectangle_110" data-name="Rectangle 110" width="2.5" height="2.5" transform="translate(38.75 63.766)" fill="#333"></rect>
    <path id="Path_193" data-name="Path 193" d="M53.875,33A16.875,16.875,0,1,0,70.75,49.875,16.874,16.874,0,0,0,53.875,33Zm0,31.25A14.375,14.375,0,1,1,68.25,49.875,14.375,14.375,0,0,1,53.875,64.25Z" transform="translate(9.249 8.266)" fill="#333"></path>
  </g>
</svg>
