<?xml version="1.0" encoding="UTF-8"?>
<svg xmlns="http://www.w3.org/2000/svg" width="71" height="70.999" viewBox="0 0 71 70.999">
  <g id="_3-installation_2_" data-name="3-installation (2)" transform="translate(0)">
    <path id="Path_194" data-name="Path 194" d="M12.307,42.044A10.264,10.264,0,0,0,2,52.35v1.143h.687l6.187-6.187,8.473,8.473-6.187,6.187v.687H12.3a10.264,10.264,0,0,0,10.309-10.3V47.311l.344-.344L17.688,41.7l-.344.344ZM20.323,52.35h-2.29a5.67,5.67,0,0,0-5.726-5.726v-2.29a7.967,7.967,0,0,1,8.016,8.016Z" transform="translate(0.291 6.053)" fill="none"></path>
    <path id="Path_195" data-name="Path 195" d="M52.35,22.612A10.264,10.264,0,0,0,62.656,12.307V11.163h-.687L55.782,17.35,47.309,8.877,53.5,2.69V2H52.352A10.264,10.264,0,0,0,42.044,12.307v5.039l-.344.344,5.268,5.268.344-.344ZM44.334,12.307h2.29a5.67,5.67,0,0,0,5.726,5.726v2.29a7.967,7.967,0,0,1-8.016-8.016Z" transform="translate(6.053 0.291)" fill="none"></path>
    <path id="Path_196" data-name="Path 196" d="M4.3,5.216l3.664,5.611h2.863V7.964L5.216,4.3Z" transform="translate(0.624 0.624)" fill="none"></path>
    <path id="Path_197" data-name="Path 197" d="M31.618,38.2l-3.436-3.436,3.436-3.436L28.984,28.7,26.35,31.334l.8.8L15.7,43.587l5.268,5.268,8.016-8.016.8.8,1.489-1.489-.8-.8Z" transform="translate(2.279 4.166)" fill="#004ab3"></path>
    <path id="Path_198" data-name="Path 198" d="M40.838,28.984l8.016-8.016L43.587,15.7,32.136,27.152l-.8-.8L28.7,28.984l2.634,2.634,3.436-3.436,3.436,3.436,1.143-1.143.8.8,1.489-1.489Z" transform="translate(4.166 2.279)" fill="#004ab3"></path>
    <path id="Path_199" data-name="Path 199" d="M62.2,54.647,38.958,31.4,31.4,38.958,54.647,62.2ZM40.9,35.866,58.082,53.043l-1.6,1.6L39.3,37.469ZM37.469,39.3,54.647,56.478l-1.6,1.6L35.866,40.9Z" transform="translate(4.558 4.558)" fill="#ed0000"></path>
    <path id="Path_200" data-name="Path 200" d="M53.647,61.2h3.664L61.2,57.311V53.647L59.258,51.7,51.7,59.258Z" transform="translate(7.504 7.504)" fill="#ed0000"></path>
    <rect id="Rectangle_111" data-name="Rectangle 111" width="7.444" height="2.519" transform="translate(33.735 38.918) rotate(-45)" fill="#ed0000"></rect>
    <g id="Group_263" data-name="Group 263" transform="translate(0 0)">
      <rect id="Rectangle_112" data-name="Rectangle 112" width="2.29" height="2.29" transform="translate(61.838 6.871)" fill="#333"></rect>
      <path id="Path_201" data-name="Path 201" d="M52.016,16.726A5.67,5.67,0,0,1,46.29,11H44a7.967,7.967,0,0,0,8.016,8.016Z" transform="translate(6.386 1.596)" fill="#333"></path>
      <path id="Path_202" data-name="Path 202" d="M63.166,9.161h-.458L57.44,14.429,52.173,9.161,57.44,3.894V0H54a12.56,12.56,0,0,0-12.6,12.6v4.122L30.3,27.827l.8.8.8.8L43.354,17.979l.344-.344V12.6A10.264,10.264,0,0,1,54,2.29h1.143v.687L48.961,9.164l8.473,8.473,6.187-6.187h.687v1.143A10.264,10.264,0,0,1,54,22.9H48.966l-.344.344-8.016,8.016.8.8.8.8,7.673-7.672H54A12.56,12.56,0,0,0,66.6,12.6V9.161Z" transform="translate(4.398 0)" fill="#333"></path>
      <rect id="Rectangle_113" data-name="Rectangle 113" width="2.29" height="2.29" transform="translate(6.871 61.838)" fill="#333"></rect>
      <path id="Path_203" data-name="Path 203" d="M11,46.29a5.67,5.67,0,0,1,5.726,5.726h2.29A7.967,7.967,0,0,0,11,44Z" transform="translate(1.596 6.386)" fill="#333"></path>
      <path id="Path_204" data-name="Path 204" d="M31.263,40.607l-8.016,8.016-.344.344v5.039A10.264,10.264,0,0,1,12.6,64.311H11.453v-.687l6.187-6.187L9.167,48.964,2.98,55.15H2.29V54.007A10.264,10.264,0,0,1,12.6,43.7h5.039l.344-.344L29.43,31.9l-.8-.8-.8-.8L16.719,41.408H12.6A12.56,12.56,0,0,0,0,54V57.44H3.894l5.268-5.268,5.268,5.268L9.161,62.708V66.6H12.6A12.56,12.56,0,0,0,25.193,54V49.882l7.672-7.672-.8-.8Z" transform="translate(0 4.398)" fill="#333"></path>
      <path id="Path_205" data-name="Path 205" d="M43.269,32.5l-1.143,1.143-3.438-3.434L35.253,33.65l-2.634-2.634L13.495,11.892V7.2L5.364,1.7,1.7,5.364l5.5,8.13h4.7L31.016,32.619l2.634,2.634-3.436,3.434,3.436,3.436-1.143,1.143.8.8L59.989,70.752h5.5l5.268-5.268v-5.5L44.07,33.307ZM11.2,11.2H8.342L4.677,5.594l.917-.917L11.2,8.342ZM68.463,64.569l-3.894,3.894H60.9l-1.947-1.947L35.711,43.269l7.557-7.557L66.515,58.958,68.462,60.9ZM38.687,33.421l1.833,1.833-5.268,5.268-1.831-1.834Z" transform="translate(0.247 0.247)" fill="#333"></path>
    </g>
  </g>
</svg>
