<?xml version="1.0" encoding="UTF-8"?>
<svg xmlns="http://www.w3.org/2000/svg" width="77" height="69.693" viewBox="0 0 77 69.693">
  <g id="_4-complete-sanctification_1_" data-name="4-complete-sanctification (1)" transform="translate(0 0.001)">
    <path id="Path_206" data-name="Path 206" d="M45,45.609a3.277,3.277,0,0,0,1.083,2.527,3.462,3.462,0,0,0,2.527,1.083H59.437a3.277,3.277,0,0,0,2.527-1.083,3.462,3.462,0,0,0,1.083-2.527,3.277,3.277,0,0,0-1.083-2.527h0A3.277,3.277,0,0,0,59.437,42H48.609A3.7,3.7,0,0,0,45,45.609Z" transform="translate(9.141 8.441)" fill="none"></path>
    <path id="Path_207" data-name="Path 207" d="M46,53.609a3.277,3.277,0,0,0,1.083,2.527,3.462,3.462,0,0,0,2.527,1.083h8.422a3.277,3.277,0,0,0,2.523-1.083,3.462,3.462,0,0,0,1.083-2.527,3.277,3.277,0,0,0-1.083-2.527h0A3.277,3.277,0,0,0,58.031,50H49.609A3.7,3.7,0,0,0,46,53.609Z" transform="translate(9.344 10.066)" fill="none"></path>
    <path id="Path_208" data-name="Path 208" d="M47.609,34A3.7,3.7,0,0,0,44,37.609a3.277,3.277,0,0,0,1.083,2.527,3.462,3.462,0,0,0,2.527,1.083H62.046a3.277,3.277,0,0,0,2.527-1.083,3.462,3.462,0,0,0,1.083-2.527,3.277,3.277,0,0,0-1.083-2.527h0A3.277,3.277,0,0,0,62.046,34Z" transform="translate(8.938 6.816)" fill="none"></path>
    <path id="Path_209" data-name="Path 209" d="M64.25,29.609a3.277,3.277,0,0,0-1.083-2.527h0A3.277,3.277,0,0,0,60.641,26H48.61a3.277,3.277,0,0,0-2.527,1.083,3.61,3.61,0,0,0,2.527,6.136H60.641a3.277,3.277,0,0,0,2.527-1.083,3.462,3.462,0,0,0,1.083-2.527Z" transform="translate(9.14 5.191)" fill="none"></path>
    <path id="Path_210" data-name="Path 210" d="M12.032,26H0V62.094H19.25V26Zm4.812,32.484v1.2H14.437v-2.4h2.406Zm0-4.812v1.2H14.437v-2.4h2.406Z" transform="translate(0 5.19)" fill="#004ab3"></path>
    <g id="Group_265" data-name="Group 265" transform="translate(0 -0.001)">
      <path id="Path_211" data-name="Path 211" d="M77,44.5a5.644,5.644,0,0,0-1.8-4.211h0a5.342,5.342,0,0,0-1.323-.962l.12-.12A6.127,6.127,0,0,0,75.8,35a5.644,5.644,0,0,0-1.8-4.211h0a5.352,5.352,0,0,0-4.211-1.925H48.486l4.451-15.4V4.8a4.369,4.369,0,0,0-1.443-3.369,5.016,5.016,0,0,0-6.858,0,5.056,5.056,0,0,0-1.443,3.128L39.7,12.617,24.785,28.859H0v2.406H19.25V67.359H0v2.406H21.656v-38.5h4.091l16-17.2.12-.12,3.85-8.9V4.8a2.375,2.375,0,0,1,.722-1.684,2.325,2.325,0,0,1,3.369,0A2.019,2.019,0,0,1,50.531,4.8v8.3L45.359,31.265h7.578a5.9,5.9,0,0,0,.6,7.821l.12.12a5.342,5.342,0,0,0-1.323.962,5.907,5.907,0,0,0-1.8,4.331,5.461,5.461,0,0,0,1.8,4.211,5.342,5.342,0,0,0,1.323.962l-.12.12a5.907,5.907,0,0,0-1.8,4.331,5.461,5.461,0,0,0,1.8,4.211,5.342,5.342,0,0,0,1.324.965l-.12.12a5.907,5.907,0,0,0-1.8,4.331,5.644,5.644,0,0,0,1.8,4.211,6.127,6.127,0,0,0,4.211,1.8h8.422a5.644,5.644,0,0,0,4.211-1.8,6.127,6.127,0,0,0,1.8-4.211,5.644,5.644,0,0,0-1.8-4.211h0l-.12-.12a5.342,5.342,0,0,0,1.323-.962,5.818,5.818,0,0,0,.241-8.181A5.035,5.035,0,0,0,75.2,48.953,6.6,6.6,0,0,0,77,44.5ZM60.156,31.265h9.624a3.277,3.277,0,0,1,2.527,1.083h0a3.462,3.462,0,0,1,1.083,2.527A3.277,3.277,0,0,1,72.307,37.4a3.752,3.752,0,0,1-2.527,1.083H57.75A3.277,3.277,0,0,1,55.223,37.4a3.462,3.462,0,0,1-1.083-2.527,3.277,3.277,0,0,1,1.083-2.527,3.462,3.462,0,0,1,2.527-1.083ZM69.9,66.276a3.752,3.752,0,0,1-2.527,1.083H58.953a3.277,3.277,0,0,1-2.527-1.083,3.462,3.462,0,0,1-1.083-2.525,3.277,3.277,0,0,1,1.083-2.527,3.462,3.462,0,0,1,2.527-1.084h8.422A3.277,3.277,0,0,1,69.9,61.224h0a3.489,3.489,0,0,1,0,5.053Zm1.2-9.625a3.752,3.752,0,0,1-2.527,1.083H57.75a3.277,3.277,0,0,1-2.527-1.083,3.462,3.462,0,0,1-1.083-2.527A3.277,3.277,0,0,1,55.223,51.6a3.462,3.462,0,0,1,2.527-1.083H68.578A3.277,3.277,0,0,1,71.1,51.6h0a3.489,3.489,0,0,1,0,5.053Zm2.406-9.625a3.752,3.752,0,0,1-2.527,1.083H56.547a3.277,3.277,0,0,1-2.527-1.083A3.462,3.462,0,0,1,52.937,44.5a3.277,3.277,0,0,1,1.083-2.527,3.462,3.462,0,0,1,2.527-1.083H70.984a3.277,3.277,0,0,1,2.527,1.083h0a3.489,3.489,0,0,1,0,5.053Z" transform="translate(0 -0.074)" fill="#333"></path>
      <path id="Path_212" data-name="Path 212" d="M22.647,54H20v2.406h2.166l4.812,2.406H47.672V56.406H27.46Z" transform="translate(4.062 10.879)" fill="#333"></path>
      <path id="Path_213" data-name="Path 213" d="M40.453,32H38.047A15.609,15.609,0,0,1,22.406,47.641H20v2.406h2.406A18.1,18.1,0,0,0,40.453,32Z" transform="translate(4.062 6.411)" fill="#333"></path>
    </g>
  </g>
</svg>
