<?xml version="1.0" encoding="UTF-8"?>
<svg xmlns="http://www.w3.org/2000/svg" xmlns:xlink="http://www.w3.org/1999/xlink" width="39" height="38" viewBox="0 0 39 38">
  <defs>
    <clipPath id="clip-path">
      <rect id="Rectangle_295" data-name="Rectangle 295" width="39" height="38" transform="translate(1065 3045)" fill="#fff" stroke="#707070" stroke-width="1"></rect>
    </clipPath>
  </defs>
  <g id="Mask_Group_51" data-name="Mask Group 51" transform="translate(-1065 -3045)" clip-path="url(#clip-path)">
    <g id="icon-ribbon" transform="translate(1068.927 3045)">
      <g id="Group_16" data-name="Group 16" transform="translate(2.719 6.829)">
        <path id="Path_23" data-name="Path 23" d="M14.357,78.728,13,75.051l-.927-.031L7.869,83.8l4.851-1.7,1.73,4.851,4.264-8.93L18,77.277Z" transform="translate(-7.869 -55.925)" fill="#ed0000"></path>
        <path id="Path_24" data-name="Path 24" d="M57.521,75.02l-.927.031-1.357,3.677-3.618-1.451-.742.741,4.264,8.93,1.73-4.851,4.851,1.7Z" transform="translate(-36.015 -55.925)" fill="#ed0000"></path>
        <path id="Path_25" data-name="Path 25" d="M37.333,28.413a8.638,8.638,0,1,0-2.53,6.122,8.652,8.652,0,0,0,2.53-6.122Zm-5.9,4.233-2.75-1.452-2.75,1.452.525-3.09-2.225-2.163,3.09-.462,1.39-2.811,1.39,2.812,3.09.462-2.225,2.163Z" transform="translate(-15.827 -19.761)" fill="#ed0000"></path>
      </g>
      <path id="Path_26" data-name="Path 26" d="M28.644,16.685l2.5-3-3.059-2.441,1.051-3.77-3.8-.958-.556-3.862-3.863.649L18.818,0,15.573,2.163,12.329,0l-2.1,3.306L6.365,2.657,5.809,6.52l-3.8.957,1.051,3.77L0,13.688l2.5,3L.68,20.146l3.492,1.73L3.925,25.77l2.966.124.927.031L9.178,29.6l3.643-1.452.711.742,2.008,2.07,2.008-2.07.711-.742,3.677,1.483,1.36-3.677.927-.031,3-.124-.245-3.893,3.492-1.73Zm-3.152,4.359.216,3.4-3.4.154L21.135,27.78l-3.151-1.267L15.6,28.954l-2.38-2.441L10.073,27.78,8.9,24.6l-3.4-.154.216-3.4L2.657,19.529,4.233,16.5,2.07,13.874l2.657-2.1L3.8,8.5l3.306-.834L7.6,4.294l3.368.557L12.793,1.98l2.843,1.885L18.478,1.98,20.3,4.851l3.368-.556.494,3.368L27.47,8.5l-.927,3.275,2.657,2.1L27.037,16.5l1.576,3.026Z" fill="#004ab3"></path>
    </g>
  </g>
</svg>
