<?xml version="1.0" encoding="UTF-8"?>
<svg xmlns="http://www.w3.org/2000/svg" xmlns:xlink="http://www.w3.org/1999/xlink" width="42" height="41" viewBox="0 0 42 41">
  <defs>
    <clipPath id="clip-path">
      <rect id="Rectangle_293" data-name="Rectangle 293" width="42" height="41" transform="translate(800 3046)" fill="#fff" stroke="#707070" stroke-width="1"></rect>
    </clipPath>
  </defs>
  <g id="Mask_Group_48" data-name="Mask Group 48" transform="translate(-800 -3046)" clip-path="url(#clip-path)">
    <g id="icon-headset" transform="translate(801.485 3046)">
      <g id="Group_14" data-name="Group 14" transform="translate(0 2.769)">
        <path id="Path_19" data-name="Path 19" d="M57.4,45.536H55.837a13.877,13.877,0,0,1,.434,3.536v5.671h-.434a2.328,2.328,0,0,0-1.4-1.4V51.974a2.936,2.936,0,0,0-5.871,0v7.039a2.9,2.9,0,0,0,3.869,2.769,8.984,8.984,0,0,1-7.673,6.1v-1.5H40.992a2.3,2.3,0,1,0,0,4.6h3.836V69.421a10.437,10.437,0,0,0,9.641-10.374V57.678a2.328,2.328,0,0,0,1.4-1.4h1.968V49.072A17.679,17.679,0,0,0,57.4,45.536ZM43.26,69.421h-2.3a.767.767,0,1,1,0-1.532h2.3ZM52.5,59.98a1.368,1.368,0,0,1-2.335-.968V51.974a1.368,1.368,0,0,1,2.735,0v1.368a2.277,2.277,0,0,0-1.532,2.169A2.309,2.309,0,0,0,52.9,57.678v1.368a1.317,1.317,0,0,1-.4.934Zm1.167-3.7a.767.767,0,1,1,.77-.767.776.776,0,0,1-.77.767Z" transform="translate(-25.68 -32.993)" fill="#004ab3"></path>
        <path id="Path_20" data-name="Path 20" d="M29.249,18V16.468a13.222,13.222,0,0,0-9.407,3.9l1.067,1.067A11.788,11.788,0,0,1,29.249,18Z" transform="translate(-13.17 -13.699)" fill="#004ab3"></path>
        <path id="Path_21" data-name="Path 21" d="M6.271,24.313a2.961,2.961,0,0,0-2.936,2.936v1.368a2.328,2.328,0,0,0-1.4,1.4h-.4V24.349A14.353,14.353,0,0,1,5.8,14.072,14.491,14.491,0,0,1,16.079,9.8V8.234A16.059,16.059,0,0,0,0,24.313v7.205H1.968a2.328,2.328,0,0,0,1.4,1.4v1.368a2.936,2.936,0,0,0,5.871,0V27.215a2.905,2.905,0,0,0-.868-2.069A3.16,3.16,0,0,0,6.271,24.313ZM4.137,29.987a.767.767,0,1,1-.767.765.755.755,0,0,1,.767-.765Zm3.5,4.27a1.368,1.368,0,0,1-2.335.968,1.336,1.336,0,0,1-.4-.971V32.886a2.277,2.277,0,0,0,1.532-2.169A2.309,2.309,0,0,0,4.9,28.55V27.182a1.368,1.368,0,0,1,2.335-.968,1.336,1.336,0,0,1,.4.968Z" transform="translate(0 -8.234)" fill="#004ab3"></path>
      </g>
      <path id="Path_22" data-name="Path 22" d="M47.817,0V15.312h2.267v3.67l3.67-3.67H70.768V0Zm4.437,3.836h5.338V5.368H52.254V3.836Zm8.073,7.639H52.254V9.944H63.1v1.532Zm6-3.069H52.291V6.874H66.365V8.406Z" transform="translate(-31.738)" fill="#ed0000"></path>
    </g>
  </g>
</svg>
