<?xml version="1.0" encoding="UTF-8"?>
<svg xmlns="http://www.w3.org/2000/svg" xmlns:xlink="http://www.w3.org/1999/xlink" width="39" height="38" viewBox="0 0 39 38">
  <defs>
    <clipPath id="clip-path">
      <rect id="Rectangle_294" data-name="Rectangle 294" width="39" height="38" transform="translate(1065 3160)" fill="#fff" stroke="#707070" stroke-width="1"></rect>
    </clipPath>
  </defs>
  <g id="Mask_Group_52" data-name="Mask Group 52" transform="translate(-1065 -3160)" clip-path="url(#clip-path)">
    <g id="icon-comfort" transform="translate(1065 3163.219)">
      <g id="Group_20" data-name="Group 20" transform="translate(0 13.382)">
        <path id="Path_31" data-name="Path 31" d="M36.077,62.015a1.056,1.056,0,0,0-1.044,1.044H33.661a2.423,2.423,0,0,1,2.417-2.417h9a1.044,1.044,0,1,0,0-2.087H35.9L32.59,56.468a9.334,9.334,0,0,0-2.146-.979,8.757,8.757,0,0,0-2.325-.33H25.377v8.435h2.8L38.64,67.768a3.7,3.7,0,0,0,1.609.209,3.57,3.57,0,0,0,1.55-.537L54.676,59a1,1,0,0,0,.417-.714,1.1,1.1,0,0,0-.209-.8l-.03-.03a1.1,1.1,0,0,0-.656-.417,1.025,1.025,0,0,0-.775.149l-6.8,4.261a2.358,2.358,0,0,1-1.55.566Z" transform="translate(-17.479 -51.374)" fill="none"></path>
        <path id="Path_32" data-name="Path 32" d="M7.869,46.783V43H0V59H7.869ZM6.528,56.589H5.154V55.216H6.528Z" transform="translate(0 -42.997)" fill="#ed0000"></path>
        <rect id="Rectangle_11" data-name="Rectangle 11" width="1.371" height="1.371" transform="translate(5.156 12.22)" fill="#fff"></rect>
        <path id="Path_33" data-name="Path 33" d="M55.921,53.645h0a2.526,2.526,0,0,0-1.52-.954,2.349,2.349,0,0,0-1.729.33L47.4,56.3a2.413,2.413,0,0,0-2.384-2.116H36.22l-2.981-1.907a8.63,8.63,0,0,0-2.5-1.133,9.326,9.326,0,0,0-2.712-.389H25.281v1.373h2.742a8.589,8.589,0,0,1,2.325.33,7.36,7.36,0,0,1,2.146.984L35.8,55.557h9.209a1.044,1.044,0,1,1,0,2.087h-9a2.423,2.423,0,0,0-2.417,2.417H35a1.056,1.056,0,0,1,1.044-1.044h9a2.358,2.358,0,0,0,1.549-.573l6.825-4.262a1.179,1.179,0,0,1,.775-.149,1.1,1.1,0,0,1,.656.417l.03.03a1.1,1.1,0,0,1,.209.8,1.056,1.056,0,0,1-.417.714L41.733,64.4a3.57,3.57,0,0,1-1.55.537,3.259,3.259,0,0,1-1.609-.209L28.112,60.555h-2.8v1.373h2.534l10.223,4.113a4.943,4.943,0,0,0,1.729.33,2.727,2.727,0,0,0,.507-.03A5,5,0,0,0,42.45,65.6l12.907-8.465.03-.03a2.373,2.373,0,0,0,.981-1.608,2.243,2.243,0,0,0-.447-1.848Z" transform="translate(-17.413 -48.34)" fill="#004ab3"></path>
      </g>
      <g id="Group_21" data-name="Group 21" transform="translate(15.052)">
        <path id="Path_34" data-name="Path 34" d="M60.95,3.926l-6.557,6.587v7.9h4.947V14.775h3.249v3.636h4.947v-7.9Z" transform="translate(-52.515 -2.704)" fill="#ed0000"></path>
        <path id="Path_35" data-name="Path 35" d="M64.038,9.657,56.8,2.444,49.582,9.657,48.36,8.435,56.8,0,65.26,8.435Z" transform="translate(-48.36)" fill="#004ab3"></path>
      </g>
    </g>
  </g>
</svg>
