<?xml version="1.0" encoding="UTF-8"?>
<svg xmlns="http://www.w3.org/2000/svg" xmlns:xlink="http://www.w3.org/1999/xlink" width="43" height="42" viewBox="0 0 43 42">
  <defs>
    <clipPath id="clip-path">
      <rect id="Rectangle_296" data-name="Rectangle 296" width="43" height="42" transform="translate(1062 2929.735)" fill="#fff" stroke="#707070" stroke-width="1"></rect>
    </clipPath>
  </defs>
  <g id="Mask_Group_50" data-name="Mask Group 50" transform="translate(-1062 -2929.735)" clip-path="url(#clip-path)">
    <g id="icon-cup" transform="translate(1069.139 2930)">
      <path id="Path_14" data-name="Path 14" d="M46.976,2.106v7.951l1.72-1.72,1.72,1.72V2.106Z" transform="translate(-30.327 -1.36)" fill="#ed0000"></path>
      <rect id="Rectangle_10" data-name="Rectangle 10" width="13.014" height="4.543" transform="translate(7.886 30.669)" fill="#ed0000"></rect>
      <g id="Group_12" data-name="Group 12" transform="translate(0)">
        <path id="Path_15" data-name="Path 15" d="M24.5,27.034H20.348a2.126,2.126,0,0,0-.617-1.363,2.16,2.16,0,0,0-1.525-.617,1.919,1.919,0,0,1-.973-3.572c.1-.032.162-.1.259-.13a13,13,0,0,0,5.385-6.523A11.1,11.1,0,0,0,28.721,5.1a2.327,2.327,0,0,0-2.336-2.336H25.022V0H3.7V2.791H2.336a2.306,2.306,0,0,0-1.655.683A2.181,2.181,0,0,0,0,5.1a11.167,11.167,0,0,0,5.841,9.736,13.019,13.019,0,0,0,5.385,6.523,1.92,1.92,0,0,1-.714,3.7,2.218,2.218,0,0,0-1.525.617,2.126,2.126,0,0,0-.617,1.363H4.251v10.32H2.077v4.381H26.644V37.354H24.5Zm.552-22.749h1.363a.891.891,0,0,1,.844.844A9.608,9.608,0,0,1,23.756,12.5a29.6,29.6,0,0,0,1.3-8.211ZM1.493,5.1a.811.811,0,0,1,.26-.585.811.811,0,0,1,.584-.259H3.7a30.873,30.873,0,0,0,1.266,8.211A9.633,9.633,0,0,1,1.493,5.1Zm8.57,21.647a.641.641,0,0,1,.455-.195A3.4,3.4,0,0,0,12.2,20.187l-.065-.032c-.065-.032-.162-.065-.227-.1C7.953,17.948,5.2,11.165,5.2,3.538V1.493h18.4V3.537c0,7.627-2.791,14.442-6.751,16.519a1.582,1.582,0,0,1-.227.1l-.065.032a3.45,3.45,0,0,0-1.72,2.953,3.407,3.407,0,0,0,3.409,3.408.641.641,0,0,1,.454.195.618.618,0,0,1,.162.324H9.9a.761.761,0,0,1,.162-.324ZM5.744,28.527h17.3v8.827H5.744Zm19.44,10.32v1.4H3.57v-1.4H25.184Z" transform="translate(0.001)" fill="#004ab3"></path>
        <path id="Path_16" data-name="Path 16" d="M18.587,10.256A24.962,24.962,0,0,0,20.826,21l1.332-.649A23.615,23.615,0,0,1,20.08,10.256Z" transform="translate(-11.999 -6.621)" fill="#004ab3"></path>
      </g>
    </g>
  </g>
</svg>
